REM DATE 2017-05
PERFORMER "Amateras Records"
TITLE "Resonate Anthems"
FILE "Amateras Records - Resonate Anthems.tta" WAVE
  TRACK 01 AUDIO
    TITLE "Dead or Alive"
    PERFORMER "音召缶"
    INDEX 01 00:00:00
  TRACK 02 AUDIO
    TITLE "Shooting Night"
    PERFORMER "ikebo"
    INDEX 01 05:03:66
  TRACK 03 AUDIO
    TITLE "Regretful Flower"
    PERFORMER "築山さえ"
    INDEX 01 10:10:20
  TRACK 04 AUDIO
    TITLE "物凄い勢いでけーねが物凄いうた [Tracy vs. Astronomical Remix]"
    PERFORMER "ななひら"
    INDEX 01 14:56:02
  TRACK 05 AUDIO
    TITLE "DOUBLE CHERRY BLOSSOM [Extended Mix]"
    PERFORMER "Alstroemeria Records"
    INDEX 01 20:07:33
  TRACK 06 AUDIO
    TITLE "endlight"
    PERFORMER "歌恋人"
    INDEX 01 25:08:02
  TRACK 07 AUDIO
    TITLE "Darkness Power [Tracy Remix]"
    PERFORMER "Alstroemeria Records"
    INDEX 01 30:59:53
  TRACK 08 AUDIO
    TITLE "uni_Verse [Tracy Remix]"
    PERFORMER "ZYTOKINE"
    INDEX 01 36:53:30
  TRACK 09 AUDIO
    TITLE "Thank you for."
    PERFORMER "あひる"
    INDEX 01 43:04:69
  TRACK 10 AUDIO
    TITLE "SkyDrive! [ALR Remix]"
    PERFORMER "築山さえ"
    INDEX 01 47:28:18
  TRACK 11 AUDIO
    TITLE "Dear My Stage [Halozy SMJ Eurotbeat Remix]"
    PERFORMER "miko"
    INDEX 01 52:24:40
